<svg width="286" height="277" viewBox="0 0 286 277" fill="none" xmlns="http://www.w3.org/2000/svg">
<path d="M286 103.875C286.027 97.5211 284.249 91.2825 280.859 85.8423C277.47 80.4021 272.6 75.9701 266.783 73.0317C260.966 70.0933 254.427 68.7617 247.881 69.1828C241.335 69.6039 235.035 71.7614 229.671 75.4191C224.306 79.0768 220.084 84.0936 217.468 89.9201C214.851 95.7467 213.94 102.158 214.834 108.453C215.729 114.748 218.394 120.682 222.539 125.608C226.684 130.533 232.148 134.258 238.333 136.376V184.667C238.333 203.033 230.8 220.647 217.391 233.634C203.983 246.621 185.796 253.917 166.833 253.917C147.87 253.917 129.684 246.621 116.275 233.634C102.866 220.647 95.3333 203.033 95.3333 184.667V183.743C115.164 180.957 133.298 171.355 146.424 156.692C159.551 142.029 166.795 123.282 166.833 103.875V34.625C166.833 25.4419 163.067 16.6349 156.362 10.1414C149.658 3.64798 140.565 0 131.083 0L95.3333 0V23.0833H131.083C134.244 23.0833 137.275 24.2993 139.51 26.4638C141.744 28.6283 143 31.564 143 34.625V103.875C143 119.18 136.722 133.859 125.548 144.681C114.374 155.503 99.2192 161.583 83.4167 161.583C67.6142 161.583 52.4589 155.503 41.2849 144.681C30.1108 133.859 23.8333 119.18 23.8333 103.875V34.625C23.8333 31.564 25.0888 28.6283 27.3236 26.4638C29.5585 24.2993 32.5895 23.0833 35.75 23.0833H71.5V0H35.75C26.2685 0 17.1754 3.64798 10.4709 10.1414C3.76651 16.6349 0 25.4419 0 34.625L0 103.875C0.0383234 123.282 7.28217 142.029 20.409 156.692C33.5357 171.355 51.6697 180.957 71.5 183.743V184.667C71.5 209.155 81.544 232.64 99.4225 249.956C117.301 267.272 141.549 277 166.833 277C192.117 277 216.366 267.272 234.244 249.956C252.123 232.64 262.167 209.155 262.167 184.667V136.376C269.113 133.998 275.131 129.599 279.397 123.781C283.663 117.963 285.969 111.011 286 103.875Z" fill="#D1603D"/>
</svg>
