<svg width="511" height="510" viewBox="0 0 511 510" fill="none" xmlns="http://www.w3.org/2000/svg">
<path d="M479.829 155.157L510.336 125.291L387.669 0L357.163 29.8667L405.291 78.9333L358.805 122.475L339.349 102.997C333.406 97.0532 326.35 92.3381 318.585 89.1211C310.819 85.9041 302.496 84.2483 294.091 84.2483C285.685 84.2483 277.362 85.9041 269.596 89.1211C261.831 92.3381 254.775 97.0532 248.832 102.997L63.0827 288.747V416.747L0 479.829L30.1653 509.995L93.248 446.912H221.248L406.997 261.163C412.941 255.22 417.657 248.164 420.874 240.398C424.091 232.633 425.746 224.31 425.746 215.904C425.746 207.499 424.091 199.175 420.874 191.41C417.657 183.644 412.941 176.588 406.997 170.645L388.992 152.661L435.136 109.504L479.829 155.157ZM376.832 230.997L203.584 404.245H105.749V325.077L146.667 365.995L176.832 335.829L126.592 285.589L160.427 251.755L210.667 301.995L240.832 271.829L190.592 221.589L224.427 187.755L274.667 237.995L304.832 207.829L254.592 157.589L278.997 133.163C280.979 131.179 283.331 129.606 285.921 128.532C288.511 127.458 291.287 126.906 294.091 126.906C296.894 126.906 299.67 127.458 302.26 128.532C304.85 129.606 307.203 131.179 309.184 133.163L376.832 200.811C378.816 202.792 380.389 205.145 381.463 207.735C382.536 210.324 383.089 213.1 383.089 215.904C383.089 218.708 382.536 221.484 381.463 224.073C380.389 226.663 378.816 229.016 376.832 230.997Z" fill="#D1603D"/>
</svg>
